#!OML:ASF F:\twosubjects\two\wednesday\Session 1\rory1.ASF
:FULLY-SPECIFIED
:DEGREES
82
root 3.32048 16.2803 -7.57313 -99.7024 -68.5376 101.339
lowerback 6.92583 -2.39796 -12.3888
upperback 2.75249 -4.31652 -4.42431
thorax -0.445943 -2.3288 2.57451
lowerneck -3.81552 -13.2937 -11.8289
upperneck -4.69463 -17.501 18.3364
head 1.98231 -8.73095 6.52552
rclavicle 3.16068e-014 -7.15625e-015
rhumerus -67.2999 33.0486 -76.8492
rradius 86.9735
rwrist -54.8505
rhand -1.35872 15.6279
rfingers 7.12502
rthumb 24.2883 -12.8534
lclavicle 3.16068e-014 -7.15625e-015
lhumerus -41.8827 3.61147 55.936
lradius 34.4496
lwrist 9.77889
lhand -29.1484 18.7356
lfingers 7.12502
lthumb -2.49499 48.7007
rfemur -49.3935 -8.64556 21.7631
rtibia 47.8053
rfoot -3.23141 -18.377
rtoes 38.5263
lfemur -1.42442 13.7971 -23.4807
ltibia 50.3338
lfoot -15.2675 -5.56902
ltoes -38.0774
83
root 3.04837 16.2728 -7.65107 -102.405 -68.3914 104.299
lowerback 6.59319 -2.6071 -11.92
upperback 2.26418 -4.54961 -4.48554
thorax -0.788067 -2.40238 2.27033
lowerneck -3.93249 -13.0691 -11.7571
upperneck -4.3575 -17.2242 18.1658
head 2.03496 -8.5782 6.4766
rclavicle -5.60573e-014 -5.56597e-014
rhumerus -67.9803 33.4635 -77.3863
rradius 86.0403
rwrist -52.9895
rhand -0.919217 18.9785
rfingers 7.12502
rthumb 24.7096 -9.44581
lclavicle -5.60573e-014 -5.56597e-014
lhumerus -44.7291 5.3937 54.0148
lradius 32.3362
lwrist 10.0829
lhand -28.4725 19.2754
lfingers 7.12502
lthumb -1.84225 49.2472
rfemur -48.0442 -7.8459 22.2431
rtibia 47.355
rfoot -4.96828 -17.2314
rtoes 39.7422
lfemur -2.41027 14.4993 -22.623
ltibia 53.1266
lfoot -10.9612 -6.11861
ltoes -36.6431
84
root 2.80293 16.2487 -7.71749 -105.469 -67.6726 107.677
lowerback 6.36374 -2.59448 -11.9171
upperback 1.74604 -4.55035 -4.59385
thorax -1.21637 -2.36272 2.16368
lowerneck -3.89972 -12.8903 -11.6572
upperneck -4.23484 -16.99 17.8801
head 1.99308 -8.45922 6.40284
rclavicle -2.78299e-014 -7.95139e-016
rhumerus -68.3794 33.795 -77.5277
rradius 84.5395
rwrist -51.3986
rhand -0.29873 22.8979
rfingers 7.12502
rthumb 25.3042 -5.44361
lclavicle -2.78299e-014 -7.95139e-016
lhumerus -47.2314 7.27289 51.9557
lradius 29.9069
lwrist 9.80169
lhand -27.8159 19.7637
lfingers 7.12502
lthumb -1.2081 49.74
rfemur -47.1172 -6.53897 22.1654
rtibia 47.1218
rfoot -6.55898 -17.7964
rtoes 39.3289
lfemur -3.97642 15.2454 -22.4076
ltibia 56.2961
lfoot -5.45483 -6.0246
ltoes -33.6035
85
root 2.57852 16.2299 -7.79064 -108.923 -66.6931 111.411
lowerback 6.08704 -2.55962 -12.4419
upperback 1.39768 -4.52061 -4.45168
thorax -1.38048 -2.32477 2.58763
lowerneck -4.15901 -12.7906 -11.7859
upperneck -4.17299 -16.8161 17.5478
head 2.00464 -8.35591 6.32328
rclavicle -4.57205e-014 -3.89618e-014
rhumerus -68.9284 34.3558 -77.1354
rradius 84.3592
rwrist -49.5948
rhand 0.0724071 22.9258
rfingers 7.12502
rthumb 25.6597 -5.36493
lclavicle -4.57205e-014 -3.89618e-014
lhumerus -49.4627 9.84914 49.5989
lradius 27.0563
lwrist 8.7792
lhand -27.2975 20.0058
lfingers 7.12502
lthumb -0.707413 49.9844
rfemur -46.6542 -5.01897 22.0753
rtibia 47.4469
rfoot -8.01366 -18.449
rtoes 40.6482
lfemur -5.95707 16.0702 -22.3502
ltibia 59.8619
lfoot 0.42606 -5.67981
ltoes -27.5994
86
root 2.36091 16.2308 -7.88207 -112.538 -66.6299 115.065
lowerback 6.22509 -2.69642 -12.1014
upperback 1.13626 -4.69532 -4.05574
thorax -1.70137 -2.37574 2.84385
lowerneck -4.67783 -12.6501 -11.6211
upperneck -3.98252 -16.5807 16.9523
head 2.03608 -8.21248 6.11041
rclavicle 4.17448e-014 3.97569e-015
rhumerus -69.476 34.8787 -76.7024
rradius 84.7671
rwrist -48.5252
rhand -0.0492676 21.4271
rfingers 7.12502
rthumb 25.5432 -6.88047
lclavicle 4.17448e-014 3.97569e-015
lhumerus -52.0873 12.623 46.5095
lradius 24.4897
lwrist 6.86988
lhand -26.7578 20.1139
lfingers 7.12502
lthumb -0.186171 50.0935
rfemur -46.0476 -3.36306 22.7969
rtibia 48.1871
rfoot -9.46799 -18.9254
rtoes 42.362
lfemur -7.81585 16.549 -21.0659
ltibia 63.6776
lfoot 4.94564 -6.3763
ltoes -25.1686
87
root 2.15941 16.1708 -7.9435 -116.804 -66.9959 119.198
lowerback 6.96747 -2.77294 -10.8357
upperback 0.792734 -4.81818 -3.74744
thorax -2.53539 -2.37948 2.55207
lowerneck -4.93637 -12.4991 -11.2947
upperneck -3.88427 -16.3683 16.5631
head 2.01143 -8.09885 5.95269
rclavicle -9.02482e-014 -6.2816e-014
rhumerus -70.4734 34.8531 -76.3824
rradius 85.5064
rwrist -47.894
rhand -0.565505 19.8777
rfingers 7.12502
rthumb 25.0486 -8.49978
lclavicle -9.02482e-014 -6.2816e-014
lhumerus -54.9993 14.2925 43.3851
lradius 22.609
lwrist 4.6826
lhand -25.6852 20.6353
lfingers 7.12502
lthumb 0.849826 50.6134
rfemur -45.5297 -2.28092 24.2136
rtibia 49.2186
rfoot -10.2903 -18.8771
rtoes 42.1494
lfemur -9.66859 16.9073 -19.1258
ltibia 67.9755
lfoot 7.01365 -8.21749
ltoes -29.8668
88
root 1.96648 16.1242 -7.98697 -121.715 -67.0953 123.954
lowerback 7.17835 -2.82542 -9.43888
upperback 0.94482 -4.76931 -3.5058
thorax -2.58679 -2.36285 2.05008
lowerneck -4.93104 -12.2859 -11.0323
upperneck -4.70712 -16.0383 16.8332
head 1.73199 -7.97282 6.05579
rclavicle -3.18055e-015 -7.95139e-015
rhumerus -70.5708 34.5965 -75.5532
rradius 86.0698
rwrist -46.7712
rhand -2.66039 19.8135
rfingers 7.12502
rthumb 23.0399 -8.8293
lclavicle -3.18055e-015 -7.95139e-015
lhumerus -57.4318 16.0514 40.4464
lradius 20.9375
lwrist 2.03897
lhand -25.3486 21.2217
lfingers 7.12502
lthumb 1.17488 51.1982
rfemur -44.7939 -1.47967 25.6694
rtibia 50.1745
rfoot -10.9004 -18.3932
rtoes 41.2515
lfemur -11.5067 17.1898 -17.4771
ltibia 72.4085
lfoot 6.80897 -9.65728
ltoes -29.8486
89
root 1.76441 16.098 -8.03622 -127.089 -67.223 129.22
lowerback 7.14718 -2.94006 -7.83378
upperback 1.20351 -4.73996 -3.13631
thorax -2.39522 -2.36611 1.54287
lowerneck -4.93748 -11.9333 -10.3993
upperneck -5.58648 -15.5182 16.666
head 1.34175 -7.76097 5.99636
rclavicle -7.13637e-014 1.90833e-014
rhumerus -70.5463 34.6145 -74.6846
rradius 86.4751
rwrist -45.7175
rhand -6.16633 20.9733
rfingers 7.12502
rthumb 19.6725 -8.05131
lclavicle -7.13637e-014 1.90833e-014
lhumerus -60.0723 18.1203 36.9861
lradius 19.3567
lwrist -1.35202
lhand -25.6159 21.4689
lfingers 7.12502
lthumb 0.916684 51.4467
rfemur -43.7206 -1.08345 27.5116
rtibia 50.9331
rfoot -11.9564 -17.3694
rtoes 41.1976
lfemur -13.2617 17.3102 -15.5934
ltibia 76.8248
lfoot 5.59967 -10.2825
ltoes -32.8962
90
root 1.61914 16.057 -8.08343 -131.897 -65.467 133.296
lowerback 8.25475 -2.62907 -8.1822
upperback 1.43582 -4.47491 -3.11258
thorax -2.76463 -2.2292 1.79849
lowerneck -5.05596 -11.6859 -10.4804
upperneck -6.0989 -15.1439 16.9409
head 1.19563 -7.59587 6.13408
rclavicle 3.3197e-014 7.15625e-015
rhumerus -70.3827 34.873 -73.5935
rradius 86.7718
rwrist -45.5328
rhand -8.08083 22.0848
rfingers 7.12502
rthumb 17.8311 -7.11768
lclavicle 3.3197e-014 7.15625e-015
lhumerus -62.8546 19.9784 33.3827
lradius 17.9045
lwrist -5.08623
lhand -25.382 21.911
lfingers 7.12502
lthumb 1.14265 51.8877
rfemur -42.2943 0.256021 27.6136
rtibia 51.5868
rfoot -12.9649 -16.4965
rtoes 42.0231
lfemur -14.3722 17.8224 -14.9797
ltibia 81.1365
lfoot 5.92488 -9.40225
ltoes -23.0515
91
root 1.42855 16.054 -8.14693 -134.857 -64.7848 134.92
lowerback 9.31919 -2.83526 -7.76806
upperback 1.92899 -4.81687 -3.19443
thorax -2.85246 -2.41953 1.56928
lowerneck -4.95713 -11.4771 -10.6766
upperneck -6.70171 -14.8273 17.3466
head 1.0161 -7.47139 6.33872
rclavicle -1.82882e-014 1.98785e-014
rhumerus -70.0502 35.0327 -72.4136
rradius 87.0949
rwrist -45.9891
rhand -7.51865 21.836
rfingers 7.12502
rthumb 18.3719 -7.31644
lclavicle -1.82882e-014 1.98785e-014
lhumerus -65.3917 20.8877 30.589
lradius 16.6394
lwrist -7.73958
lhand -25.2834 22.408
lfingers 7.12502
lthumb 1.2379 52.3842
rfemur -40.1274 -0.308891 27.9816
rtibia 52.0678
rfoot -14.2701 -15.5393
rtoes 41.9417
lfemur -15.1402 17.4317 -14.1105
ltibia 85.2283
lfoot 5.07413 -8.84266
ltoes -23.284
92
root 1.26491 16.0412 -8.19197 -137.575 -63.2612 136.757
lowerback 10.186 -2.89339 -7.79234
upperback 2.15035 -5.01085 -3.41982
thorax -3.1056 -2.52285 1.41946
lowerneck -4.61087 -11.1573 -10.1062
upperneck -7.59786 -14.3755 17.0229
head 0.567449 -7.30863 6.25193
rclavicle -3.67752e-014 1.11319e-014
rhumerus -69.6748 35.5368 -71.588
rradius 87.3284
rwrist -47.0789
rhand -5.19586 19.4897
rfingers 7.12502
rthumb 20.6052 -9.43666
lclavicle -3.67752e-014 1.11319e-014
lhumerus -67.841 21.4319 28.0991
lradius 15.4838
lwrist -10.1476
lhand -25.021 22.3075
lfingers 7.12502
lthumb 1.4913 52.2821
rfemur -38.4973 -0.230796 27.8528
rtibia 52.3904
rfoot -14.8294 -14.8015
rtoes 40.6738
lfemur -16.6212 17.4512 -14.0928
ltibia 89.3577
lfoot 4.40601 -7.74851
ltoes -21.7671
93
root 1.12463 16.0337 -8.22803 -140.466 -61.2437 139.633
lowerback 10.45 -2.75705 -7.70299
upperback 2.03318 -4.87871 -3.61653
thorax -3.41126 -2.4501 1.17447
lowerneck -4.06974 -10.8134 -9.1115
upperneck -8.36288 -13.9271 16.2964
head 0.0633535 -7.1507 5.98696
rclavicle -6.0033e-014 -8.50798e-014
rhumerus -69.7402 36.1072 -71.2899
rradius 87.3749
rwrist -48.5286
rhand -1.09821 15.9353
rfingers 7.12502
rthumb 24.5381 -12.5124
lclavicle -6.0033e-014 -8.50798e-014
lhumerus -70.8727 22.1 24.5746
lradius 14.6876
lwrist -14.4756
lhand -23.8826 21.667
lfingers 7.12502
lthumb 2.59075 51.631
rfemur -37.6247 1.00667 27.788
rtibia 52.4258
rfoot -14.9473 -14.1664
rtoes 39.82
lfemur -19.1115 18.2163 -14.127
ltibia 93.545
lfoot 3.80184 -7.03754
ltoes -19.8127
94
root 0.973136 16.0629 -8.31655 -143.481 -60.4431 141.904
lowerback 11.1899 -2.84991 -7.29647
upperback 2.24726 -5.02613 -3.55417
thorax -3.61422 -2.52795 1.07527
lowerneck -4.02345 -10.6203 -9.85628
upperneck -8.04644 -13.676 17.0472
head 0.235726 -7.01431 6.32853
rclavicle -3.3197e-014 5.00937e-014
rhumerus -69.8171 36.3699 -70.8001
rradius 87.445
rwrist -49.7267
rhand -5.75587 17.4093
rfingers 7.12502
rthumb 20.067 -11.5744
lclavicle -3.3197e-014 5.00937e-014
lhumerus -73.2939 22.4674 21.5745
lradius 13.868
lwrist -18.9014
lhand -22.6361 21.203
lfingers 7.12502
lthumb 3.79451 51.149
rfemur -35.5243 1.59345 28.4575
rtibia 52.077
rfoot -15.4494 -13.7998
rtoes 39.5212
lfemur -20.6034 18.1043 -12.852
ltibia 97.2807
lfoot 2.70174 -7.30962
ltoes -22.6772
95
root 0.825689 16.0943 -8.41481 -145.932 -59.1675 144.4
lowerback 10.9862 -2.91127 -7.13812
upperback 2.3389 -5.0599 -3.47422
thorax -3.40915 -2.55565 1.05859
lowerneck -4.20266 -10.4388 -9.46269
upperneck -7.77569 -13.4597 16.6006
head 0.249056 -6.89516 6.13265
rclavicle 7.71285e-014 -3.89618e-014
rhumerus -69.2753 36.8748 -70.0283
rradius 87.4599
rwrist -50.6994
rhand -14.7366 22.1325
rfingers 7.12502
rthumb 11.4188 -7.53659
lclavicle 7.71285e-014 -3.89618e-014
lhumerus -74.9886 22.3526 20.4458
lradius 13.3196
lwrist -21.3825
lhand -22.1335 21.3164
lfingers 7.12502
lthumb 4.27982 51.2532
rfemur -34.0885 2.21405 29.0968
rtibia 51.4494
rfoot -15.6196 -13.0109
rtoes 38.6332
lfemur -22.9733 18.5386 -11.9668
ltibia 100.921
lfoot 1.31108 -7.81086
ltoes -26.2788
